<svg width="32" height="33" viewBox="0 0 32 33" fill="none" xmlns="http://www.w3.org/2000/svg">
<path fill-rule="evenodd" clip-rule="evenodd" d="M23.8324 7.26802C25.5169 7.26802 26.8875 8.63862 26.8875 10.3231C26.889 23.5076 26.889 23.4781 26.889 23.3608C26.889 23.3256 26.8889 23.2825 26.889 23.5854C26.889 25.2694 25.5168 26.6395 23.83 26.6395H8.16941C6.4854 26.6395 5.11531 25.2694 5.11531 23.5854C5.1135 11.7185 5.11327 10.2718 5.11328 10.3208C5.11329 10.3469 5.11336 10.7975 5.11329 10.3232C5.11329 8.63867 6.4839 7.26806 8.16842 7.26806H10.2811V6.53847C10.2811 6.25216 10.5132 6.02002 10.7995 6.02002C11.0859 6.02002 11.318 6.25216 11.318 6.53847V7.26806H20.6826V6.53847C20.6826 6.25216 20.9148 6.02002 21.2011 6.02002C21.4874 6.02002 21.7195 6.25216 21.7195 6.53847V7.26802H23.8324ZM8.16842 8.30497C7.05554 8.30497 6.15024 9.21027 6.15024 10.3231V12.7664H25.8505V10.3231C25.8505 9.21027 24.9452 8.30497 23.8323 8.30497H21.7194V9.03484C21.7194 9.32116 21.4873 9.5533 21.201 9.5533C20.9147 9.5533 20.6825 9.32116 20.6825 9.03484V8.30497H11.3179V9.03484C11.3179 9.32116 11.0858 9.5533 10.7995 9.5533C10.5132 9.5533 10.281 9.32116 10.281 9.03484V8.30497H8.16842ZM23.8301 25.6026C24.945 25.6026 25.8521 24.6978 25.8521 23.5854V13.8056H6.15231V23.5854C6.15231 24.6978 7.05709 25.6026 8.16945 25.6026H23.8301ZM13.401 22.8295L13.7544 20.7731L12.2602 19.3172C12.119 19.1794 12.0679 18.9734 12.1289 18.7858C12.1899 18.5982 12.3519 18.4612 12.5471 18.4326L14.6121 18.1314L15.5361 16.2615C15.7108 15.9076 16.291 15.9076 16.4657 16.2615L17.3898 18.1314L19.4548 18.4326C19.6499 18.4612 19.8119 18.5982 19.873 18.7858C19.934 18.9734 19.8828 19.1795 19.7416 19.3172L18.2472 20.7734L18.5989 22.83C18.632 23.0245 18.552 23.2209 18.3923 23.3368C18.2333 23.4533 18.0216 23.4683 17.8464 23.3763L16.0006 22.406L14.1528 23.3763C13.978 23.4682 13.7663 23.4528 13.6068 23.3366C13.4473 23.2207 13.3676 23.0239 13.401 22.8295ZM15.4212 18.8347C15.3458 18.9876 15.1999 19.0934 15.0314 19.1182L13.7359 19.3071L14.6734 20.2208C14.7957 20.34 14.8516 20.5116 14.8225 20.68L14.6007 21.9701L15.76 21.3615C15.9108 21.282 16.0914 21.282 16.2422 21.3615L17.3999 21.9701L17.1792 20.6795C17.1506 20.5114 17.2063 20.3397 17.3285 20.2207L18.266 19.3071L16.9706 19.1182C16.802 19.0934 16.6562 18.9876 16.5807 18.8347L16.001 17.6615L15.4212 18.8347Z" fill="#102733"/>
</svg>
