<svg width="32" height="33" viewBox="0 0 32 33" fill="none" xmlns="http://www.w3.org/2000/svg">
<path fill-rule="evenodd" clip-rule="evenodd" d="M13.968 27.6051C14.217 27.6881 14.4778 27.7304 14.7404 27.7304H18.506C18.9883 27.7304 19.4597 27.5877 19.8609 27.3202M19.8609 27.3202L23.9916 24.5664C23.9915 24.5664 23.9916 24.5664 23.9916 24.5664C24.6673 24.116 24.8495 23.203 24.3995 22.5277C23.9496 21.8535 23.037 21.6672 22.3601 22.1202C22.36 22.1202 22.3601 22.1201 22.3601 22.1202L19.8139 23.8176H19.7337C19.5038 22.7073 18.5203 21.8729 17.3419 21.8729H16.5202L16.0169 21.5373C14.548 20.558 12.6109 20.7063 11.3096 21.8729H8.52569C8.25074 21.8729 8.02785 22.0958 8.02785 22.3707V26.2602C8.02785 26.5351 8.25074 26.758 8.52569 26.758H11.4269L13.968 27.6051M14.4248 24.8133C14.1498 24.8133 13.9269 24.5904 13.9269 24.3154C13.9269 24.0405 14.1498 23.8176 14.4248 23.8176H18.7009C18.4979 23.2638 17.9661 22.8685 17.3419 22.8685H16.3695C16.2712 22.8685 16.1751 22.8394 16.0934 22.7849L15.4646 22.3658C14.3315 21.6103 12.8226 21.7597 11.8597 22.7227C11.7663 22.8161 11.6397 22.8685 11.5076 22.8685H9.02352V25.7624H11.5076C11.5611 25.7624 11.6143 25.771 11.6651 25.7879L14.2828 26.6605C14.2828 26.6605 14.2828 26.6605 14.2828 26.6605C14.4303 26.7097 14.5849 26.7347 14.7404 26.7347H18.506C18.7917 26.7347 19.0709 26.6502 19.3086 26.4917L23.4394 23.7379C23.6571 23.5928 23.7163 23.298 23.5709 23.0797C23.4245 22.8607 23.1303 22.8027 22.9137 22.9477L20.2408 24.7297C20.159 24.7842 20.0629 24.8133 19.9646 24.8133H14.4248Z" fill="#102733"/>
<path d="M12.9478 8.60349C11.4895 9.29902 10.2884 10.3942 9.47489 11.7703C9.34259 11.9936 9.42086 12.2789 9.64866 12.4079C9.72416 12.4507 9.80614 12.4708 9.88719 12.4708C10.0521 12.4708 10.2124 12.3874 10.3005 12.2379C11.0189 11.0233 12.0793 10.0565 13.3662 9.44214C13.6029 9.32912 13.7012 9.0497 13.5856 8.81819C13.471 8.58664 13.1864 8.48955 12.9478 8.60349Z" fill="#102733"/>
<path fill-rule="evenodd" clip-rule="evenodd" d="M13.6295 8.79603C13.5025 8.53952 13.1882 8.43312 12.9256 8.5585L13.6295 8.79603ZM10.3426 12.2632C10.245 12.4288 10.0678 12.5205 9.88645 12.5205C9.79712 12.5205 9.70664 12.4984 9.62339 12.4512C9.37185 12.3087 9.2845 11.9927 9.4313 11.7449C10.2499 10.3602 11.4585 9.25824 12.9256 8.5585M13.5402 8.84021C13.438 8.63363 13.1831 8.54587 12.9685 8.64835C11.519 9.33967 10.3254 10.4281 9.517 11.7955C9.39921 11.9944 9.46839 12.249 9.67245 12.3645C9.74018 12.4029 9.81369 12.421 9.88645 12.421C10.035 12.421 10.1783 12.3459 10.2568 12.2126C10.9804 10.9893 12.0483 10.0158 13.344 9.39715C13.5562 9.29584 13.6431 9.04622 13.5402 8.84021Z" fill="#102733"/>
<path d="M27.4739 15.2711H26.4956C26.2649 10.5146 22.5612 6.64142 17.8106 6.03038C17.8877 5.85851 17.9321 5.66945 17.9321 5.47001C17.9321 4.69791 17.29 4.06985 16.5008 4.06985C15.7115 4.06985 15.0695 4.69791 15.0695 5.47001C15.0695 5.66949 15.1138 5.85851 15.191 6.03038C10.4404 6.64142 6.7367 10.5146 6.50599 15.2711H5.52767C5.26396 15.2711 5.05056 15.4799 5.05056 15.7379V16.2055C5.05056 16.9079 5.26114 17.5883 5.65997 18.1736C6.01453 18.6941 6.6081 19.0049 7.2478 19.0049H25.7538C26.393 19.0049 26.987 18.6941 27.342 18.1731C27.7404 17.5879 27.951 16.9079 27.951 16.2055V15.7379C27.951 15.4799 27.7376 15.2711 27.4739 15.2711ZM16.5008 5.00332C16.764 5.00332 16.9779 5.21251 16.9779 5.47006C16.9779 5.72755 16.764 5.93679 16.5008 5.93679C16.2375 5.93679 16.0237 5.7276 16.0237 5.47006C16.0237 5.21251 16.2376 5.00332 16.5008 5.00332ZM16.5008 6.87017C21.338 6.87017 25.2909 10.599 25.5414 15.2711H7.46021C7.71068 10.599 11.6635 6.87017 16.5008 6.87017ZM26.9968 16.2055C26.9968 16.7228 26.8417 17.2247 26.5477 17.6558C26.3701 17.9161 26.0734 18.0715 25.7538 18.0715H7.2478C6.92817 18.0715 6.63092 17.9161 6.45344 17.6554C6.15989 17.2242 6.00478 16.7228 6.00478 16.2056L26.9968 16.2055Z" fill="#102733"/>
<path fill-rule="evenodd" clip-rule="evenodd" d="M15.0189 5.46996C15.0189 4.66934 15.6843 4.02002 16.5 4.02002C17.3157 4.02002 17.9811 4.66934 17.9811 5.46996C17.9811 5.65341 17.9449 5.82827 17.8811 5.98952C22.6077 6.62816 26.2891 10.4831 26.5421 15.2213H27.4731C27.7633 15.2213 28 15.4513 28 15.7378V16.2055C28 16.9179 27.7864 17.6077 27.3824 18.2011C27.018 18.7359 26.4084 19.0547 25.753 19.0547H7.24702C6.59116 19.0547 5.98205 18.7359 5.61805 18.2016C5.21363 17.6081 5 16.9179 5 16.2055V15.7378C5 15.4513 5.23672 15.2213 5.52689 15.2213H6.4579C6.71087 10.4831 10.3923 6.62816 15.1189 5.98952C15.0551 5.82828 15.0189 5.65345 15.0189 5.46996ZM16.5 4.11959C15.7372 4.11959 15.1185 4.72638 15.1185 5.46996C15.1185 5.66196 15.1612 5.84406 15.2356 6.00994L15.2631 6.07115L15.1966 6.07971C10.4689 6.6878 6.78443 10.542 6.55494 15.2735L6.55264 15.3209H5.52689C5.28964 15.3209 5.09957 15.5084 5.09957 15.7378V16.2055C5.09957 16.8977 5.30709 17.5685 5.70033 18.1455C6.04544 18.6521 6.62349 18.9551 7.24702 18.9551H25.753C26.376 18.9551 26.9545 18.6522 27.3001 18.1451C27.6929 17.568 27.9004 16.8977 27.9004 16.2055V15.7378C27.9004 15.5084 27.7104 15.3209 27.4731 15.3209H26.4474L26.4451 15.2735C26.2156 10.542 22.5311 6.6878 17.8034 6.07971L17.7369 6.07115L17.7644 6.00994C17.8388 5.84406 17.8815 5.66192 17.8815 5.46996C17.8815 4.72638 17.2628 4.11959 16.5 4.11959ZM16.5 5.05306C16.2632 5.05306 16.0727 5.24099 16.0727 5.47001C16.0727 5.69903 16.2632 5.88696 16.5 5.88696C16.7368 5.88696 16.9273 5.69899 16.9273 5.47001C16.9273 5.24099 16.7368 5.05306 16.5 5.05306ZM15.9731 5.47001C15.9731 5.18394 16.2103 4.95349 16.5 4.95349C16.7897 4.95349 17.0269 5.18394 17.0269 5.47001C17.0269 5.75602 16.7897 5.98653 16.5 5.98653C16.2103 5.98653 15.9731 5.75607 15.9731 5.47001ZM7.51211 15.2213H25.4879C25.2122 10.6008 21.2934 6.91991 16.5 6.91991C11.7066 6.91991 7.78778 10.6008 7.51211 15.2213ZM7.40972 15.2684C7.66164 10.5691 11.637 6.82034 16.5 6.82034C21.363 6.82034 25.3384 10.5691 25.5903 15.2684L25.5931 15.3209H7.4069L7.40972 15.2684ZM5.95421 16.1548H27.0458V16.2046C27.0458 16.732 26.8876 17.2444 26.588 17.6838C26.4011 17.9579 26.0888 18.1212 25.753 18.1212H7.24702C6.91124 18.1212 6.59843 17.9579 6.41151 17.6834C6.11238 17.244 5.95421 16.7329 5.95421 16.2055V16.1548ZM6.05425 16.2544C6.0637 16.7442 6.2151 17.2179 6.49381 17.6273C6.66184 17.8741 6.94355 18.0217 7.24702 18.0217H25.753C26.0564 18.0217 26.3377 17.8741 26.5058 17.6277C26.7849 17.2184 26.9363 16.7443 26.9458 16.2544H6.05425Z" fill="#102733"/>
</svg>
