<svg width="32" height="33" viewBox="0 0 32 33" fill="none" xmlns="http://www.w3.org/2000/svg">
<path fill-rule="evenodd" clip-rule="evenodd" d="M6.25183 5.70838C6.25183 4.77723 7.0092 4.02002 7.94019 4.02002H10.725C11.656 4.02002 12.4134 4.77723 12.4134 5.70838V7.10685H14.1239C14.9739 7.10685 15.6652 7.79817 15.6652 8.64824V15.985H16.0924V14.8665C16.0924 14.0347 16.769 13.3582 17.6008 13.3582H21.4685C22.3002 13.3582 22.9768 14.0347 22.9768 14.8665V15.985H25.5242C26.3381 15.985 27 16.6469 27 17.4607V26.5444C27 27.3583 26.3381 28.02 25.5242 28.02H13.545C12.7311 28.02 12.0692 27.3583 12.0692 26.5444V26.1711H8.40288V27.54C8.40288 27.805 8.18817 28.02 7.92288 28.02H5.04981C4.78452 28.02 4.56981 27.805 4.56981 27.54V26.1711H4.54125C3.6913 26.1711 3 25.4798 3 24.6297V8.64824C3 7.79817 3.6913 7.10685 4.54125 7.10685H6.25183V5.70838ZM7.94019 4.98002C7.53879 4.98002 7.21183 5.30698 7.21183 5.70838V7.10685H11.4534V5.70838C11.4534 5.30698 11.1264 4.98002 10.725 4.98002H7.94019ZM4.54125 8.06685C4.22093 8.06685 3.96 8.32773 3.96 8.64824V24.6297C3.96 24.9502 4.22093 25.2111 4.54125 25.2111H12.0692V17.4607C12.0692 16.6469 12.7311 15.985 13.545 15.985H14.7052V8.64824C14.7052 8.32773 14.4443 8.06685 14.1239 8.06685H4.54125ZM17.6008 14.3182C17.2985 14.3182 17.0524 14.5643 17.0524 14.8665V15.985H22.0168V14.8665C22.0168 14.5643 21.7707 14.3182 21.4685 14.3182H17.6008ZM13.545 16.945C13.2607 16.945 13.0292 17.1765 13.0292 17.4607V26.5444C13.0292 26.8285 13.2607 27.06 13.545 27.06H16.0705V16.945H13.545ZM17.0305 16.945V27.06H22.0387V16.945H17.0305ZM22.9988 16.945V27.06H25.5242C25.8085 27.06 26.04 26.8285 26.04 26.5444V17.4607C26.04 17.1765 25.8085 16.945 25.5242 16.945H22.9988ZM5.52981 26.1711V27.06H7.44288V26.1711H5.52981ZM6.2524 10.0238C6.2524 9.75881 6.46712 9.54383 6.7324 9.54383H11.9339C12.1992 9.54383 12.4139 9.75881 12.4139 10.0238V13.2162C12.4139 13.4813 12.1992 13.6962 11.9339 13.6962H6.7324C6.46712 13.6962 6.2524 13.4813 6.2524 13.2162V10.0238ZM7.2124 10.5038V12.7362H11.4539V10.5038H7.2124Z" fill="#102733"/>
</svg>
