<svg width="32" height="33" viewBox="0 0 32 33" fill="none" xmlns="http://www.w3.org/2000/svg">
<path fill-rule="evenodd" clip-rule="evenodd" d="M12.519 10.0316C12.2854 9.83692 12.1514 9.55081 12.1514 9.24673V3.53084C12.1514 3.24871 11.9227 3.02002 11.6406 3.02002H8.57572C8.29359 3.02002 8.0649 3.24871 8.0649 3.53084V5.5741V9.24673C8.0649 9.55081 7.93091 9.83692 7.69732 10.0315C5.98312 11.46 5 13.559 5 15.7904V27.0284C5 28.155 5.91661 29.0716 7.04327 29.0716H13.1731C14.2997 29.0716 15.2163 28.155 15.2163 27.0284V15.7904C15.2163 13.559 14.2332 11.46 12.519 10.0316ZM9.08654 4.0416H11.1298V5.06324H9.08654V4.0416ZM14.1947 27.0284C14.1947 27.5917 13.7364 28.05 13.1731 28.05H7.04327C6.47994 28.05 6.02163 27.5917 6.02163 27.0284V15.7904C6.02163 13.8631 6.87076 12.0502 8.35137 10.8164C8.81856 10.427 9.08654 9.8549 9.08654 9.24667V6.08487H11.1298V9.24667C11.1298 9.85485 11.3978 10.427 11.865 10.8164C13.3456 12.0501 14.1947 13.8631 14.1947 15.7903V27.0284ZM7.04327 16.3013V26.0068C7.04327 26.2889 7.27196 26.5176 7.55408 26.5176H12.6623C12.9444 26.5176 13.1731 26.2889 13.1731 26.0068V16.3013C13.1731 16.0191 12.9444 15.7904 12.6623 15.7904H7.55408C7.27196 15.7904 7.04327 16.0191 7.04327 16.3013ZM8.0649 16.8121H12.1514V25.496H8.0649V16.8121ZM26.6241 8.00437L27.7024 12.3177C28.3513 14.9134 28.0085 17.8447 25.9572 19.5825C25.0614 20.3414 23.9824 20.7724 22.8783 20.8741V26.0412C24.218 26.2196 25.3736 27.0916 25.9039 28.3644C26.044 28.7006 25.7964 29.0717 25.4324 29.0717H19.3026C18.9384 29.0717 18.691 28.7005 18.831 28.3644C19.3614 27.0916 20.517 26.2196 21.8567 26.0412V20.8741C20.7549 20.773 19.6764 20.3437 18.7778 19.5825C16.7261 17.8444 16.3837 14.9128 17.0325 12.3176L18.1108 8.00432C18.1677 7.7769 18.372 7.61737 18.6064 7.61737H26.1285C26.3629 7.61737 26.5672 7.7769 26.6241 8.00437ZM25.7297 8.63901H19.0052C18.0525 12.4526 18.0173 12.5857 17.9863 12.7199C17.9838 12.7307 17.9813 12.7415 17.9784 12.7543C18.8999 12.832 19.4592 13.0555 20.0028 13.2729C20.6126 13.5168 21.1885 13.7472 22.3674 13.7472C23.5463 13.7472 24.1223 13.5168 24.732 13.2728C25.2756 13.0554 25.8349 12.832 26.7565 12.7542C26.7536 12.7416 26.7511 12.7308 26.7486 12.72C26.7174 12.5851 26.6821 12.4512 25.7297 8.63901ZM24.5359 28.0501H20.199C21.3186 26.6886 23.4155 26.6877 24.5359 28.0501ZM17.8059 13.7658C17.4161 17.246 19.2944 19.877 22.3674 19.877C25.4343 19.877 27.32 17.2523 26.9291 13.7658C26.1028 13.8252 25.619 14.0184 25.1115 14.2214C24.4387 14.4906 23.743 14.7688 22.3674 14.7688C20.9965 14.7688 20.3185 14.4981 19.6608 14.2355C19.1407 14.0279 18.6333 13.8253 17.8059 13.7658Z" fill="#102733"/>
</svg>
